<svg xmlns="http://www.w3.org/2000/svg" width="18" height="12" viewBox="0 0 18 12">
  <title>Great Britain flag</title>
  <rect width="18" height="12" fill="#012169"/>
  <polygon points="0,0 2,0 18,10 18,12 16,12 0,2" fill="#FFFFFF"/>
  <polygon points="18,0 16,0 0,10 0,12 2,12 18,2" fill="#FFFFFF"/>
  <polygon points="0,0 1.2,0 18,10.8 18,12 16.8,12 0,1.2" fill="#C8102E"/>
  <polygon points="18,0 16.8,0 0,10.8 0,12 1.2,12 18,1.2" fill="#C8102E"/>
  <rect x="7" width="4" height="12" fill="#FFFFFF"/>
  <rect y="4" width="18" height="4" fill="#FFFFFF"/>
  <rect x="7.8" width="2.4" height="12" fill="#C8102E"/>
  <rect y="4.8" width="18" height="2.4" fill="#C8102E"/>
</svg>
